<svg xmlns="http://www.w3.org/2000/svg" viewBox="0 0 400 400">
  <defs>
    <linearGradient id="g1" x1="0" y1="0" x2="0" y2="1">
      <stop offset="0%" stop-color="#2a1f14"/>
      <stop offset="100%" stop-color="#0d0906"/>
    </linearGradient>
    <filter id="n1"><feTurbulence type="fractalNoise" baseFrequency="0.85" numOctaves="2"/><feColorMatrix values="0 0 0 0 0.35 0 0 0 0 0.28 0 0 0 0 0.18 0 0 0 0.22 0"/></filter>
  </defs>
  <rect width="400" height="400" fill="url(#g1)"/>
  <path d="M0 250 Q200 235 400 255 L400 400 L0 400 Z" fill="#3e2a18" opacity="0.85"/>
  <g transform="translate(160 270) rotate(-18)">
    <rect x="0" y="0" width="160" height="10" rx="5" fill="#b01a1a"/>
    <rect x="0" y="0" width="160" height="4" rx="2" fill="#e03a3a"/>
    <polygon points="160,0 180,5 160,10" fill="#f0f0f0"/>
    <rect x="30" y="2" width="40" height="6" fill="#7a0e0e"/>
  </g>
  <circle cx="235" cy="295" r="18" fill="#8a1010" opacity="0.55"/>
  <circle cx="235" cy="295" r="8" fill="#c42424" opacity="0.7"/>
  <g stroke="#5a3a1a" stroke-width="0.4" opacity="0.6">
    <line x1="0" y1="280" x2="400" y2="290"/>
    <line x1="0" y1="310" x2="400" y2="320"/>
    <line x1="0" y1="340" x2="400" y2="348"/>
  </g>
  <text x="200" y="378" text-anchor="middle" font-family="monospace" font-size="10" fill="#c4a070" opacity="0.65">EXHIBIT · PEN (DROPPED)</text>
  <rect width="400" height="400" filter="url(#n1)"/>
</svg>
