<svg xmlns="http://www.w3.org/2000/svg" viewBox="0 0 400 400">
  <defs>
    <radialGradient id="g0" cx="50%" cy="50%" r="70%">
      <stop offset="0%" stop-color="#1a2a3d"/>
      <stop offset="100%" stop-color="#05080d"/>
    </radialGradient>
    <filter id="n0"><feTurbulence type="fractalNoise" baseFrequency="0.9" numOctaves="2"/><feColorMatrix values="0 0 0 0 0.3 0 0 0 0 0.35 0 0 0 0 0.4 0 0 0 0.18 0"/></filter>
  </defs>
  <rect width="400" height="400" fill="url(#g0)"/>
  <g stroke="#3aa1d8" stroke-width="1.2" fill="#0a1a2a">
    <g>
      <rect x="30" y="30" width="80" height="64"/>
      <rect x="120" y="30" width="80" height="64"/>
      <rect x="210" y="30" width="80" height="64" fill="#1a4068"/>
      <rect x="300" y="30" width="70" height="64"/>
      <rect x="30" y="108" width="80" height="64" fill="#0a2030"/>
      <rect x="120" y="108" width="80" height="64" fill="#0a2030"/>
      <rect x="210" y="108" width="80" height="64"/>
      <rect x="300" y="108" width="70" height="64"/>
      <rect x="30" y="186" width="80" height="64"/>
      <rect x="120" y="186" width="80" height="64" fill="#16365a"/>
      <rect x="210" y="186" width="80" height="64"/>
      <rect x="300" y="186" width="70" height="64" fill="#0a2030"/>
      <rect x="30" y="264" width="80" height="64" fill="#0a2030"/>
      <rect x="120" y="264" width="80" height="64"/>
      <rect x="210" y="264" width="80" height="64"/>
      <rect x="300" y="264" width="70" height="64"/>
    </g>
  </g>
  <g stroke="#5cc8ff" stroke-width="0.6" opacity="0.7">
    <line x1="250" y1="35" x2="250" y2="88"/>
    <line x1="215" y1="60" x2="285" y2="60"/>
  </g>
  <rect x="30" y="345" width="340" height="2" fill="#5cc8ff" opacity="0.4"/>
  <text x="200" y="378" text-anchor="middle" font-family="monospace" font-size="11" fill="#7db3e0" opacity="0.8">CAM-10 · 01:00:00</text>
  <rect width="400" height="400" filter="url(#n0)"/>
</svg>
