<svg xmlns="http://www.w3.org/2000/svg" viewBox="0 0 400 400">
  <defs>
    <linearGradient id="g3" x1="0" y1="0" x2="0" y2="1">
      <stop offset="0%" stop-color="#151515"/>
      <stop offset="100%" stop-color="#050505"/>
    </linearGradient>
    <filter id="n3"><feTurbulence type="fractalNoise" baseFrequency="0.9" numOctaves="2"/><feColorMatrix values="0 0 0 0 0.3 0 0 0 0 0.3 0 0 0 0 0.3 0 0 0 0.18 0"/></filter>
  </defs>
  <rect width="400" height="400" fill="url(#g3)"/>
  <g stroke="#2a2a2a" stroke-width="0.6">
    <line x1="0" y1="80"  x2="400" y2="80"/>
    <line x1="0" y1="160" x2="400" y2="160"/>
    <line x1="0" y1="240" x2="400" y2="240"/>
    <line x1="0" y1="320" x2="400" y2="320"/>
  </g>
  <g fill="#3a3a3a" stroke="#1a1a1a" stroke-width="0.5">
    <rect x="20"  y="22"  width="54" height="52"/>
    <rect x="80"  y="24"  width="62" height="50"/>
    <rect x="148" y="20"  width="48" height="56"/>
    <rect x="202" y="24"  width="60" height="50"/>
    <rect x="268" y="22"  width="50" height="54"/>
    <rect x="324" y="24"  width="56" height="52"/>

    <rect x="24"  y="102" width="58" height="52"/>
    <rect x="88"  y="100" width="56" height="56"/>
    <rect x="150" y="104" width="60" height="50"/>
    <rect x="216" y="102" width="50" height="54"/>
    <rect x="272" y="104" width="58" height="50"/>
    <rect x="336" y="102" width="46" height="52"/>

    <rect x="20"  y="182" width="60" height="54"/>
    <rect x="86"  y="184" width="50" height="52"/>
    <rect x="142" y="182" width="58" height="54"/>
    <rect x="206" y="184" width="54" height="50"/>
    <rect x="266" y="182" width="60" height="52"/>
    <rect x="332" y="184" width="50" height="52"/>
  </g>
  <rect x="148" y="20" width="48" height="56" fill="none" stroke="#c42424" stroke-width="2"/>
  <text x="200" y="378" text-anchor="middle" font-family="monospace" font-size="10" fill="#8a8a8a" opacity="0.7">ARCHIVE · SHELF 14-B</text>
  <rect width="400" height="400" filter="url(#n3)"/>
</svg>
